<?xml version="1.0" standalone="no"?>
<!DOCTYPE svg PUBLIC "-//W3C//DTD SVG 20010904//EN"
 "http://www.w3.org/TR/2001/REC-SVG-20010904/DTD/svg10.dtd">
<svg version="1.0" xmlns="http://www.w3.org/2000/svg"
 width="880.000000pt" height="2003.000000pt" viewBox="0 0 880.000000 2003.000000"
 preserveAspectRatio="xMidYMid meet">

<g transform="translate(0.000000,2003.000000) scale(0.100000,-0.100000)"
fill="#000000" stroke="none">
<path d="M4250 19613 c-340 -35 -590 -134 -632 -251 -17 -48 -17 -267 1 -344
16 -76 62 -140 152 -214 102 -83 122 -115 117 -182 -4 -46 -15 -67 -81 -166
-91 -134 -236 -325 -437 -572 -704 -867 -1061 -1446 -1260 -2043 -88 -265 -95
-311 -93 -649 3 -425 29 -599 129 -852 98 -248 305 -560 433 -655 44 -32 61
-52 61 -75 0 -4 -29 -46 -64 -93 -72 -97 -89 -138 -87 -209 1 -59 20 -100 75
-156 48 -51 103 -82 145 -82 17 0 34 -7 39 -16 5 -8 21 -17 36 -18 35 -4 37
-7 47 -58 11 -54 24 -695 15 -731 -7 -31 -33 -40 -176 -57 -214 -27 -454 -146
-476 -237 -7 -27 2 -69 27 -130 26 -64 -8 -92 -232 -192 -320 -141 -467 -230
-489 -296 -18 -54 8 -129 62 -181 171 -164 722 -343 1283 -419 222 -30 370
-57 383 -70 42 -39 33 -798 -14 -1280 -20 -210 -97 -772 -140 -1030 -120 -719
-327 -1525 -489 -1907 -79 -186 -118 -225 -376 -376 -240 -139 -234 -131 -227
-333 5 -118 10 -158 32 -224 48 -149 29 -230 -86 -369 -88 -104 -328 -357
-702 -736 -498 -505 -650 -675 -712 -799 -54 -110 -30 -196 105 -367 88 -112
116 -162 108 -196 -5 -18 -35 -44 -102 -88 -53 -35 -109 -78 -125 -96 -62 -71
-84 -209 -83 -534 0 -257 11 -359 50 -439 23 -46 53 -60 172 -80 87 -14 431
-15 3561 -15 2159 1 3581 5 3773 11 283 10 311 12 335 30 37 28 61 99 72 212
13 132 12 563 -1 657 -17 123 -44 162 -181 257 -36 26 -76 59 -87 73 -19 25
-20 28 -4 58 9 17 51 76 95 131 131 166 156 240 123 361 -33 123 -74 169 -830
928 -360 361 -563 579 -632 678 -82 117 -92 199 -42 349 40 120 50 256 25 342
-15 51 -22 60 -79 100 -34 24 -107 70 -162 102 -127 73 -213 134 -255 182 -71
80 -190 370 -279 680 -243 842 -446 2052 -502 2986 -11 189 -9 740 3 752 3 3
97 17 209 30 584 72 1102 210 1349 360 57 35 129 104 149 142 16 31 14 99 -4
132 -41 79 -186 168 -444 271 -167 66 -226 94 -253 118 -26 22 -22 69 12 129
16 29 30 61 30 72 0 27 -111 126 -180 161 -85 43 -219 79 -335 90 -55 6 -120
13 -144 16 l-43 6 5 386 c3 213 8 397 12 409 5 17 24 26 88 43 132 36 197 77
242 154 37 64 42 121 15 207 -19 64 -29 80 -82 131 -74 70 -76 65 48 198 130
141 242 319 337 536 125 286 170 531 171 934 0 233 -5 286 -50 477 -91 390
-317 881 -607 1318 -113 170 -401 576 -437 617 -54 61 -72 52 -147 -74 -34
-57 -114 -204 -179 -328 -460 -883 -559 -1040 -654 -1040 -28 0 -62 25 -79 56
-22 45 17 133 259 584 155 288 401 779 452 900 19 47 43 117 53 155 l18 70
-25 50 c-14 28 -79 122 -144 210 -144 196 -223 316 -265 401 -45 90 -39 101
91 189 167 113 218 209 208 397 -3 67 -10 93 -33 136 -82 151 -281 251 -557
281 -90 10 -327 12 -408 4z"/>
</g>
</svg>
