<?xml version="1.0" standalone="no"?>
<!DOCTYPE svg PUBLIC "-//W3C//DTD SVG 20010904//EN"
 "http://www.w3.org/TR/2001/REC-SVG-20010904/DTD/svg10.dtd">
<svg version="1.0" xmlns="http://www.w3.org/2000/svg"
 width="78.000000pt" height="85.000000pt" viewBox="0 0 78.000000 85.000000"
 preserveAspectRatio="xMidYMid meet">

<g transform="translate(0.000000,85.000000) scale(0.100000,-0.100000)"
fill="#000000" stroke="none">
<path d="M392 813 c2 -21 -3 -30 -19 -38 -13 -5 -23 -17 -23 -26 0 -9 -10 -19
-23 -22 -12 -4 -59 -42 -105 -85 -72 -70 -82 -84 -82 -114 0 -40 11 -53 56
-62 25 -6 38 -2 63 20 30 25 34 26 75 14 24 -7 54 -9 67 -5 19 6 16 -1 -19
-41 -64 -72 -121 -161 -128 -201 -4 -20 -3 -52 2 -72 l9 -36 158 -3 159 -3 -7
30 c-6 30 19 144 50 224 20 49 19 150 -1 218 -19 63 -95 146 -144 156 -19 3
-37 17 -51 39 -25 41 -41 44 -37 7z"/>
<path d="M234 116 c-3 -7 -4 -35 -2 -62 l3 -49 190 0 190 0 0 60 0 60 -188 3
c-153 2 -188 0 -193 -12z"/>
</g>
</svg>
