<?xml version="1.0" standalone="no"?>
<!DOCTYPE svg PUBLIC "-//W3C//DTD SVG 20010904//EN"
 "http://www.w3.org/TR/2001/REC-SVG-20010904/DTD/svg10.dtd">
<svg version="1.0" xmlns="http://www.w3.org/2000/svg"
 width="288.000000pt" height="175.000000pt" viewBox="0 0 288.000000 175.000000"
 preserveAspectRatio="xMidYMid meet">

<g transform="translate(0.000000,175.000000) scale(0.100000,-0.100000)"
fill="#000000" stroke="none">
<path d="M940 1413 l1 -118 84 -63 85 -64 0 -259 0 -259 -75 -79 -75 -78 0
-72 0 -71 -40 0 -40 0 0 -65 0 -65 560 0 560 0 0 65 0 65 -40 0 -40 0 0 73 0
73 -75 74 -75 74 0 262 0 262 85 64 84 63 1 118 0 117 -100 0 -100 0 0 -50 0
-50 -90 0 -90 0 0 50 0 50 -120 0 -120 0 0 -50 0 -50 -90 0 -90 0 0 50 0 50
-100 0 -100 0 0 -117z m976 -98 c4 -8 1 -22 -6 -30 -19 -23 -921 -23 -940 0
-7 8 -10 22 -6 30 5 13 65 15 476 15 411 0 471 -2 476 -15z m-176 -130 c10
-12 10 -18 0 -30 -19 -22 -581 -22 -600 0 -10 12 -10 18 0 30 11 13 57 15 300
15 243 0 289 -2 300 -15z m0 -520 c10 -12 10 -18 0 -30 -19 -22 -581 -22 -600
0 -10 12 -10 18 0 30 11 13 57 15 300 15 243 0 289 -2 300 -15z m147 -156 c6
-6 9 -18 6 -25 -8 -21 -898 -21 -906 0 -3 7 0 19 6 25 16 16 878 16 894 0z m3
-149 c24 -37 -8 -40 -448 -40 -423 0 -468 3 -456 35 9 21 37 22 482 21 355 -1
414 -3 422 -16z"/>
</g>
</svg>
